<?xml version="1.0" encoding="UTF-8"?>
<svg id="Camada_2" data-name="Camada 2" xmlns="http://www.w3.org/2000/svg" xmlns:xlink="http://www.w3.org/1999/xlink" viewBox="0 0 408.69 363.56">
  <defs>
    <style>
      .cls-1 {
        fill: #5e328a;
      }

      .cls-2 {
        fill: url(#Gradiente_sem_nome_382);
      }
    </style>
    <linearGradient id="Gradiente_sem_nome_382" data-name="Gradiente sem nome 382" x1="0" y1="219.29" x2="400.79" y2="219.29" gradientUnits="userSpaceOnUse">
      <stop offset="0" stop-color="#2f6fad"/>
      <stop offset="1" stop-color="#61c4e3"/>
    </linearGradient>
  </defs>
  <g id="Camada_1-2" data-name="Camada 1">
    <path class="cls-2" d="M246.04,89.75c1.97,3.01.36,8.99.92,9.54,2.99,2.94,35.72-12.85,44.27-6.59l4.42,4.79c8.4,42.01-15.98,62.79-52.02,77.19,5.26,11.52,2.12,23.45,4.86,35.57,6.28,27.83,33.33,49.96,27.02,81.9l-7.08-7.11c-3.39,9.37,4.58,22.96,3.75,29.94-.1.83-13.33,5.57-7.36,12.85,8,9.76,118.41,11.21,134.24-7.06l1.74,7.06c-49.98,30.21-104.7,28.63-161.02,21.45l-3.54,14.29c-8.68-31.59-26.42-61.28-50.13-83.91,15.62,2.89,11.65-5.82,19.66-12.51,10.32-8.61,21.57-9.3,25.93-24.07,5.19-17.62-5.29-14.09-11.25-19.17-4.16-3.55-5.72-9.71-10.12-11.52-5.92-2.44-19.37-1.67-20.39-2.63-1.53-1.45.23-24.97-9.16-21.11-15.1,8.81-16.46,28.1-23.61,39.98-13.32,22.1-33.92,43.95-41.09,70.46-2.06,7.63.25,23.64-4.9,27.25-37.68,3.82-76.59,6.3-111.18,22.94,9.78-21.91,62.96-27.44,74.24-36.58,1.9-1.54,6.95-14.49,10.84-19.55,24.75-32.17,58.26-64.62,58.09-108.1,20.55,16.19,43.28-7.06,46.45-28.57-36.6,58.03-66.32,10.35-48.34-35.78,5.09-13.04,41.59-41.35,55.39-44.7s41.64,1.92,49.36,13.76Z"/>
    <path class="cls-1" d="M307.76,320.7c57.5-65.9,116.43-174.73,53.59-255.21-31.77-40.69-90.78-59.58-135.67-28.43-7.34,5.09-15.33,18.85-23.67,19.59-14.34-2.95-23.67-14.14-37.42-19.79C100.04,10.36,35.37,54.57,28.66,122.58c-3.19,32.32,5.8,53.42,9.75,83.08.52,3.87,3.96,12.31-2.58,11.49C.7,148.73,12.77,43.93,94.65,17.01c41.85-13.76,69.63-.47,106.82,17.68,64.7-69.77,162.43-25.08,195.24,52.66,26.08,61.78,6.7,127.11-30.23,179.5-5.58,7.92-50.72,60.99-58.72,53.86Z"/>
    <path class="cls-1" d="M203.96,356.48c.83,6.25-8.1,3.33-12.46,3.53-57.94,2.55-112.48-23.99-170.03-.03,53.41-42.37,122.27-6.96,182.49-3.5Z"/>
  </g>
</svg>